<?xml version="1.0" encoding="UTF-8" standalone="no"?>
<!DOCTYPE svg PUBLIC "-//W3C//DTD SVG 1.1//EN" "http://www.w3.org/Graphics/SVG/1.1/DTD/svg11.dtd">
<svg width="100%" height="100%" viewBox="0 0 400 400" version="1.1" xmlns="http://www.w3.org/2000/svg" xmlns:xlink="http://www.w3.org/1999/xlink" xml:space="preserve" xmlns:serif="http://www.serif.com/" style="fill-rule:evenodd;clip-rule:evenodd;stroke-linejoin:round;stroke-miterlimit:1.41421;">
    <g transform="matrix(-1.00754,-1.00754,1.00754,-1.00754,174.064,591.226)">
        <path d="M189.067,79.044C183.88,78.728 178.678,78.728 173.49,79.044L167.866,109.247C165.376,109.589 162.899,110.025 160.441,110.556L144.827,84.098C139.844,85.576 134.956,87.355 130.189,89.426L135.235,119.731C133.011,120.904 130.833,122.161 128.705,123.5L104.983,103.978C100.806,107.071 96.821,110.415 93.05,113.991L108.157,140.743C106.468,142.606 104.852,144.532 103.31,146.518L74.342,136.287C71.475,140.622 68.874,145.127 66.553,149.777L89.898,169.749C88.949,172.077 88.088,174.44 87.319,176.834L56.599,177.127C55.387,182.181 54.484,187.304 53.894,192.468L82.661,203.251C82.565,205.763 82.565,208.278 82.661,210.79L53.894,221.573C54.484,226.737 55.387,231.86 56.599,236.913L87.319,237.207C88.088,239.601 88.949,241.964 89.898,244.292L66.553,264.264C68.874,268.914 71.475,273.419 74.342,277.754L103.31,267.522C104.852,269.509 106.468,271.435 108.157,273.298L93.05,300.05C96.821,303.626 100.806,306.97 104.983,310.062L128.705,290.54C130.833,291.88 133.011,293.137 135.235,294.31L130.189,324.615C134.956,326.686 139.844,328.465 144.827,329.943L160.441,303.485C162.899,304.015 165.376,304.452 167.866,304.794L173.49,334.997C178.678,335.313 183.88,335.313 189.067,334.997L194.691,304.794C197.182,304.452 199.658,304.015 202.116,303.485L217.73,329.943C222.713,328.465 227.601,326.686 232.368,324.615L227.322,294.31C229.546,293.137 231.724,291.88 233.852,290.54L257.574,310.062C261.751,306.97 265.736,303.626 269.507,300.05L254.401,273.298C256.089,271.435 257.705,269.509 259.247,267.522L288.215,277.754C291.082,273.419 293.683,268.914 296.004,264.264L272.659,244.292C273.608,241.964 274.469,239.601 275.238,237.207L305.958,236.913C307.17,231.86 308.073,226.737 308.663,221.573L279.896,210.79C279.992,208.278 279.992,205.763 279.896,203.251L308.663,192.468C308.073,187.304 307.17,182.181 305.958,177.127L275.238,176.834C274.469,174.44 273.608,172.077 272.659,169.749L296.004,149.777C293.683,145.127 291.082,140.622 288.215,136.287L259.247,146.518C257.705,144.532 256.089,142.606 254.401,140.743L269.507,113.991C265.736,110.415 261.751,107.071 257.574,103.978L233.852,123.5C231.724,122.161 229.546,120.904 227.322,119.731L232.368,89.426C227.601,87.355 222.713,85.576 217.73,84.098L202.116,110.556C199.658,110.025 197.182,109.589 194.691,109.247L189.067,79.044ZM181.279,142.824C216.71,142.824 245.475,171.589 245.475,207.02C245.475,242.451 216.71,271.217 181.279,271.217C145.847,271.217 117.082,242.451 117.082,207.02C117.082,171.589 145.847,142.824 181.279,142.824Z"/>
    </g>
</svg>
